HIERARCHY
ROOT Hips
{
	OFFSET 0.000000 0.000000 0.000000 
	CHANNELS 6 Xposition Yposition Zposition Zrotation Yrotation Xrotation
	JOINT LeftUpLeg
	{
		OFFSET 1.363060 -1.794630 0.839290 
		CHANNELS 3 Zrotation Yrotation Xrotation
		JOINT LeftLeg
		{
			OFFSET 2.448110 -6.726130 0.000000 
			CHANNELS 3 Zrotation Yrotation Xrotation
			JOINT LeftFoot
			{
				OFFSET 2.562200 -7.039590 0.000000 
				CHANNELS 3 Zrotation Yrotation Xrotation
				JOINT LeftToeBase
				{
					OFFSET 0.157640 -0.433110 2.322550 
					CHANNELS 3 Zrotation Yrotation Xrotation
					End Site
					{
						OFFSET 0.000000 0.000000 0.000000 
					}
				}
			}
		}
	}
	JOINT RightUpLeg
	{
		OFFSET -1.305520 -1.794630 0.839290 
		CHANNELS 3 Zrotation Yrotation Xrotation
		JOINT RightLeg
		{
			OFFSET -2.542530 -6.985550 0.000000 
			CHANNELS 3 Zrotation Yrotation Xrotation
			JOINT RightFoot
			{
				OFFSET -2.568260 -7.056230 0.000000 
				CHANNELS 3 Zrotation Yrotation Xrotation
				JOINT RightToeBase
				{
					OFFSET -0.164730 -0.452590 2.363150 
					CHANNELS 3 Zrotation Yrotation Xrotation
					End Site
					{
						OFFSET 0.000000 0.000000 0.000000 
					}
				}
			}
		}
	}
	JOINT Spine
	{
		OFFSET 0.028270 2.035590 -0.193380 
		CHANNELS 3 Zrotation Yrotation Xrotation
		JOINT Spine1
		{
			OFFSET 0.056720 2.048850 -0.042750 
			CHANNELS 3 Zrotation Yrotation Xrotation
			JOINT Neck1
			{
				OFFSET -0.054170 1.746240 0.172020 
				CHANNELS 3 Zrotation Yrotation Xrotation
				JOINT Head
				{
					OFFSET 0.104070 1.761360 -0.123970 
					CHANNELS 3 Zrotation Yrotation Xrotation
					End Site
					{
						OFFSET 0.000000 0.000000 0.000000 
					}
				}
			}
			JOINT LeftArm
			{
				OFFSET 3.362410 1.200890 -0.311210 
				CHANNELS 3 Zrotation Yrotation Xrotation
				JOINT LeftForeArm
				{
					OFFSET 4.983000 -0.000000 -0.000000 
					CHANNELS 3 Zrotation Yrotation Xrotation
					JOINT LeftHand
					{
						OFFSET 3.483560 -0.000000 -0.000000 
						CHANNELS 3 Zrotation Yrotation Xrotation
						JOINT LeftHandIndex1
						{
							OFFSET 0.715260 -0.000000 -0.000000 
							CHANNELS 3 Zrotation Yrotation Xrotation
							End Site
							{
								OFFSET 0.000000 0.000000 0.000000 
							}
						}
					}
				}
			}
			JOINT RightArm
			{
				OFFSET -3.136600 1.374050 -0.404650 
				CHANNELS 3 Zrotation Yrotation Xrotation
				JOINT RightForeArm
				{
					OFFSET -5.241900 -0.000000 -0.000000 
					CHANNELS 3 Zrotation Yrotation Xrotation
					JOINT RightHand
					{
						OFFSET -3.444170 -0.000000 -0.000000 
						CHANNELS 3 Zrotation Yrotation Xrotation
						JOINT RightHandIndex1
						{
							OFFSET -0.622530 -0.000000 -0.000000 
							CHANNELS 3 Zrotation Yrotation Xrotation
							End Site
							{
								OFFSET 0.000000 0.000000 0.000000 
							}
						}
					}
				}
			}
		}
	}
}
MOTION
Frames: 18
Frame Time: 0.041667
29.523716 17.084172 15.149632 -178.029893 10.927639 -172.400052 -24.074709 -23.612994 -24.488686 -12.519163 10.072412 12.142152 -3.154480 17.818373 -11.315912 8.601300 -16.544200 -54.700800 43.736295 5.369715 22.125120 13.199413 -2.491018 12.838746 -2.361650 -3.774245 -25.217579 -0.329100 3.687100 -10.198000 2.258925 2.556691 -6.263681 5.449646 3.511465 -23.523360 -1.007067 11.705945 20.956372 -2.793500 7.612500 17.879400 -91.796901 27.639480 10.532510 14.480572 -28.761364 -5.447838 -0.536354 1.991039 3.473297 -7.125000 0.000000 0.000000 73.099503 -24.064809 51.818448 -19.940610 32.378285 -5.324135 0.895536 -1.939045 -14.151223 7.125000 0.000000 0.000000 
29.520939 17.117273 14.819064 -178.065588 10.738468 -172.799724 -25.272219 -22.217751 -24.096340 -12.288819 10.721398 14.104250 -2.631791 15.470093 -10.141647 8.503800 -16.477600 -54.357600 42.170507 3.279271 20.999603 12.340550 -3.715880 15.919511 -1.947586 -2.395493 -22.017303 -0.235900 3.125900 -8.629500 2.274194 2.596491 -6.249412 5.335493 3.474378 -23.501874 -1.052534 11.790407 21.068068 -2.795500 7.685900 17.933200 -91.862738 27.759769 11.364866 14.918635 -29.234922 -5.589358 -0.567276 1.983947 2.955039 -7.125000 0.000000 0.000000 72.934420 -24.496511 51.300706 -19.908164 32.347195 -5.320781 0.918299 -1.927093 -14.355373 7.125000 0.000000 0.000000 
29.518385 17.151818 14.497159 -178.285062 10.517232 -173.270995 -26.675081 -20.766824 -23.745688 -12.001006 11.438144 16.245724 -1.995864 12.616760 -9.389244 8.336000 -16.360900 -53.764100 40.208407 1.047318 19.368270 11.278927 -5.095958 19.522621 -1.163649 -3.216288 -17.717761 -0.639200 5.114900 -14.236500 2.274152 2.558956 -6.243866 5.216773 3.411381 -23.583492 -1.156544 11.839515 21.167105 -2.863900 7.764900 17.983200 -92.088546 27.926167 11.330545 15.322203 -29.646058 -5.744792 -0.536705 1.988769 3.546112 -7.125000 0.000000 0.000000 72.912190 -24.802697 50.583269 -19.752361 32.209862 -5.281618 0.916822 -1.927673 -14.257376 7.125000 0.000000 0.000000 
29.512720 17.187919 14.177587 -178.700422 10.287935 -173.836393 -28.298278 -20.150803 -22.150211 -11.965753 11.280888 16.702863 -1.547813 10.739902 -9.483488 7.885400 -16.034300 -52.148700 37.866720 -1.223900 17.349658 9.898611 -6.584443 23.647916 -0.289300 -4.561156 -12.669940 -0.940000 6.175400 -17.294300 2.263401 2.454770 -6.246826 5.102807 3.334075 -23.781831 -1.266371 11.871021 21.264365 -2.960300 7.857400 18.023100 -91.780884 27.950993 12.540953 15.363324 -29.687688 -5.723938 -0.565983 1.976142 2.778373 -7.125000 0.000000 0.000000 73.008023 -25.026169 49.671061 -19.480406 31.962158 -5.209073 0.897649 -1.937862 -14.034771 7.125000 0.000000 0.000000 
29.504056 17.231461 13.860014 -179.241573 10.095029 -174.441413 -29.968074 -19.941773 -20.118624 -12.000607 10.928795 16.753816 -1.081556 8.853363 -10.356833 7.263500 -15.549800 -49.863900 35.456873 -3.173021 15.044439 8.200940 -8.168723 28.330072 0.451884 -5.950987 -8.006554 -0.487100 4.475200 -12.417600 2.246685 2.360827 -6.214422 5.014604 3.252628 -23.804251 -1.433847 11.866802 21.399850 -3.111600 7.941000 18.154100 -91.542982 27.824918 13.085467 15.415900 -29.715291 -5.704531 -0.576286 1.972646 2.667002 -7.125000 0.000000 0.000000 73.146638 -25.040149 48.279476 -19.140009 31.670851 -5.117781 0.870963 -1.949207 -14.020212 7.125000 0.000000 0.000000 
29.498613 17.279336 13.554104 -179.747554 9.894448 -174.996060 -31.418041 -19.739674 -18.028601 -12.027575 10.513165 16.642060 -0.607942 6.813120 -11.202273 6.677500 -15.054200 -47.643900 33.458437 -4.550752 12.484456 6.361768 -9.798890 33.334833 1.095230 -8.086521 -4.317804 -0.121800 2.249600 -6.196100 2.291640 2.206619 -6.213153 5.287273 3.237018 -24.048638 -1.531028 11.927630 21.510988 -3.177600 8.026000 18.208200 -91.478619 27.810482 13.687896 15.401602 -29.715667 -5.672835 -0.576366 1.974928 2.565070 -7.125000 0.000000 0.000000 72.934738 -25.168648 47.113191 -18.989481 31.478187 -5.086870 0.859285 -1.947482 -14.327516 7.125000 0.000000 0.000000 
29.495391 17.323656 13.260524 179.694390 9.720744 -175.498224 -32.893002 -19.093675 -16.178667 -12.049283 10.151236 16.585920 -0.282600 5.308495 -11.558582 6.546900 -14.938200 -47.139000 31.686934 -5.507988 9.722955 4.463445 -11.339227 38.287716 1.754515 -10.945858 -0.447393 -0.087100 1.903400 -5.238900 2.266954 2.106392 -6.150046 5.266857 3.143774 -23.884916 -1.412120 11.775081 21.466247 -3.102100 7.941700 18.102900 -90.958450 27.364931 14.761179 15.492801 -29.790450 -5.680902 -0.611013 1.959219 2.128444 -7.125000 0.000000 0.000000 73.069780 -24.927034 46.033720 -18.894935 31.461136 -5.109658 0.849786 -1.959263 -14.444164 7.125000 0.000000 0.000000 
29.490282 17.356980 12.975942 179.018440 9.610799 -176.048670 -34.554942 -18.434555 -14.316276 -12.135516 9.730319 16.325891 -0.066991 4.360272 -12.002807 6.532700 -14.925400 -47.083800 29.987211 -6.222513 6.889378 2.573739 -12.689202 42.888753 2.324788 -13.976533 3.778087 -0.155300 2.539600 -6.999500 2.251610 1.910563 -6.112004 5.328509 3.045272 -23.897438 -1.414286 11.730945 21.459577 -3.145300 7.955000 18.063300 -90.607062 27.018872 14.914025 15.603897 -29.851948 -5.693982 -0.636684 1.952250 2.646676 -7.125000 0.000000 0.000000 73.196423 -24.700155 45.351581 -18.836191 31.452446 -5.144341 0.831387 -1.974223 -14.381197 7.125000 0.000000 0.000000 
29.492170 17.383639 12.706133 178.244172 9.570126 -176.517695 -36.151964 -17.786188 -12.705338 -12.212118 9.397093 16.134347 0.151064 3.346151 -12.528407 6.412000 -14.816100 -46.613800 28.525448 -6.557333 3.850617 0.771784 -13.917935 47.120989 2.732322 -16.930997 7.709562 -0.251400 3.226000 -8.908500 2.206805 1.699757 -6.087111 5.337610 2.943992 -23.957785 -1.390186 11.750378 21.465246 -3.167500 7.990200 18.068000 -90.276129 26.644131 14.555402 15.830271 -29.963652 -5.720755 -0.663339 1.948504 3.720935 -7.125000 0.000000 0.000000 73.455354 -24.426989 44.507955 -18.838236 31.501210 -5.173371 0.821411 -1.985891 -14.812747 7.125000 0.000000 0.000000 
29.499946 17.395302 12.462649 178.677294 9.390472 -176.893744 -36.108491 -17.073530 -11.428862 -12.101677 9.146229 16.200364 0.299556 2.431130 -12.430255 6.304100 -14.716700 -46.190400 28.770962 -6.722011 0.943590 -0.553495 -15.183017 51.217164 2.864284 -17.740971 6.452011 -1.113600 6.704100 -18.841600 2.272564 1.635151 -6.060446 5.280354 2.806841 -24.216558 -1.404333 11.851755 21.459134 -3.180200 8.040200 18.049900 -90.391987 26.602406 14.240109 16.704197 -30.776771 -6.055752 -0.714205 1.940560 3.788456 -7.125000 0.000000 0.000000 73.452356 -24.192093 44.011151 -19.059435 31.721737 -5.260081 0.854265 -1.978696 -15.849128 7.125000 0.000000 0.000000 
29.514275 17.406077 12.231051 178.402137 9.295394 -177.042924 -36.812379 -16.978520 -10.277589 -12.076031 8.993360 16.235979 0.600322 0.839320 -13.057138 5.767900 -14.199600 -44.042800 28.370654 -6.610462 -2.324878 -1.627216 -16.239328 54.502953 3.273281 -19.331728 2.880400 -0.833500 5.824200 -16.275000 2.249199 1.513504 -6.061307 5.128993 2.699632 -24.382343 -1.408170 11.799159 21.441579 -3.226700 8.038600 18.034000 -89.524216 26.192626 15.118326 17.406335 -31.356431 -6.313872 -0.787532 1.899537 3.033834 -7.125000 0.000000 0.000000 73.712114 -23.966220 43.497792 -19.361299 32.061952 -5.389169 0.883592 -1.980494 -16.731623 7.125000 0.000000 0.000000 
29.535935 17.414407 12.001230 177.595693 9.225035 -177.183582 -38.248994 -16.982320 -9.017631 -12.168589 8.800672 16.090619 0.795060 -0.014763 -14.026322 5.721800 -14.153200 -43.854800 27.522346 -6.258260 -5.553331 -2.360777 -17.014535 56.717533 3.368551 -18.832242 -1.072615 -0.538600 4.702100 -13.060700 2.199570 1.274986 -6.071049 5.208060 2.630539 -24.488460 -1.411028 11.728890 21.450391 -3.278400 8.028000 18.069000 -88.897274 25.752497 15.313819 17.984037 -31.811656 -6.524518 -0.824332 1.877812 3.170514 -7.125000 0.000000 0.000000 73.899975 -23.841422 43.313734 -19.737969 32.439860 -5.533036 0.897454 -1.982758 -17.419657 7.125000 0.000000 0.000000 
29.559595 17.432069 11.777963 177.365054 9.103939 -177.149090 -38.880037 -16.919579 -7.938588 -12.209696 8.571637 15.896156 0.912457 -0.451155 -14.658074 5.834400 -14.265900 -44.313400 27.486592 -5.619400 -8.674241 -2.692852 -17.784973 58.052879 3.206633 -17.748340 -4.268118 -0.572500 4.845700 -13.469100 2.196912 1.137690 -6.080095 5.218088 2.555646 -24.569155 -1.432797 11.728915 21.483431 -3.314400 8.035000 18.132200 -88.138242 25.223352 16.113702 18.575172 -32.266477 -6.711731 -0.873776 1.847943 2.699527 -7.125000 0.000000 0.000000 73.931887 -23.768836 43.402190 -20.130478 32.809150 -5.666292 0.915800 -1.977061 -18.067207 7.125000 0.000000 0.000000 
29.588475 17.451174 11.553362 177.115797 8.974074 -177.182365 -39.534715 -16.840378 -6.718133 -12.259412 8.283131 15.606804 1.048931 -1.012812 -15.314457 5.799200 -14.230900 -44.170300 27.466402 -4.761468 -11.546784 -2.728391 -18.426250 58.567653 2.766680 -15.751904 -7.306505 -0.607700 4.989700 -13.879100 2.195320 0.972275 -6.083613 5.278565 2.477145 -24.650820 -1.400807 11.788085 21.502894 -3.297700 8.059100 18.152300 -87.499692 24.729445 16.658224 19.267458 -32.828592 -6.972487 -0.910351 1.822614 2.286823 -7.125000 0.000000 0.000000 73.950618 -23.688536 43.558498 -20.439216 33.092168 -5.769383 0.926298 -1.973058 -18.347493 7.125000 0.000000 0.000000 
29.623243 17.470391 11.327651 176.891378 8.814078 -177.235399 -40.144182 -16.572846 -5.445512 -12.340014 7.913769 15.171302 1.096921 -1.021499 -15.818697 6.115800 -14.539600 -45.444600 27.414395 -3.827615 -14.203793 -2.494244 -18.928306 58.208665 2.239580 -13.489847 -9.255293 -0.582400 4.886500 -13.585300 2.175114 0.842352 -6.062659 5.256893 2.381205 -24.582869 -1.294411 11.770191 21.461845 -3.222000 8.022500 18.087200 -86.980836 24.136786 16.790372 20.056446 -33.477870 -7.311875 -0.913372 1.811638 2.230683 -7.125000 0.000000 0.000000 74.172191 -23.591659 43.363422 -20.593915 33.275972 -5.832999 0.920180 -1.980872 -17.911532 7.125000 0.000000 0.000000 
29.662231 17.490163 11.104162 176.776626 8.643399 -177.295637 -40.560303 -16.239314 -4.153986 -12.408680 7.508344 14.681575 1.163351 -1.103126 -16.349890 6.369900 -14.777500 -46.448900 27.483956 -2.794367 -16.557244 -1.900593 -19.269306 56.842206 1.818239 -11.705800 -10.366250 -0.616700 5.025700 -13.981900 2.241363 0.729085 -6.052908 5.671987 2.389547 -24.618949 -1.322390 11.820635 21.440289 -3.178300 7.988500 18.026400 -86.942555 23.644540 17.031486 20.898866 -34.239430 -7.680627 -0.937703 1.805504 1.818254 -7.125000 0.000000 0.000000 73.922121 -23.698437 43.359020 -20.730924 33.347192 -5.878130 0.926278 -1.970321 -17.438460 7.125000 0.000000 0.000000 
29.702441 17.507491 10.878562 176.594876 8.485292 -177.425671 -41.071102 -15.876899 -2.821417 -12.444847 7.132478 14.258280 1.335881 -2.070863 -16.857065 6.071000 -14.496800 -45.266100 27.432318 -1.700032 -18.550158 -0.987236 -19.396811 54.573818 1.625280 -10.951224 -11.145423 -0.829900 5.812000 -16.239900 2.228157 0.552786 -6.024359 5.676889 2.280059 -24.546305 -1.342901 11.697789 21.422417 -3.262500 7.944700 18.074800 -86.382391 23.059759 17.412337 21.811339 -35.011981 -8.112384 -0.983945 1.773624 1.170206 -7.125000 0.000000 0.000000 74.176163 -23.558440 43.383777 -20.746933 33.383911 -5.879248 0.919993 -1.977816 -17.252951 7.125000 0.000000 0.000000 
29.743985 17.519043 10.648852 176.233215 8.328289 -177.619360 -41.689298 -15.060444 -1.694126 -12.458677 6.831557 13.980550 1.424033 -3.092828 -16.739066 5.870900 -14.302000 -44.461300 27.075534 -0.540424 -20.177380 0.190177 -19.257508 51.511132 1.626981 -10.957419 -11.662972 -1.096600 6.654300 -18.695200 2.224350 0.304386 -6.034126 5.857757 2.198995 -24.698672 -1.196809 11.929517 21.410310 -3.120400 8.008700 18.038600 -86.241250 22.777745 17.475084 22.848994 -35.894074 -8.625262 -0.971527 1.774919 0.689149 -7.125000 0.000000 0.000000 74.099385 -23.628747 43.812160 -20.768853 33.360325 -5.868206 0.921674 -1.974124 -17.151239 7.125000 0.000000 0.000000 
